<svg xmlns="http://www.w3.org/2000/svg" viewBox="0 0 640 640" fill="#ccc">
    <!-- 외곽 테두리 -->
    <path d="M160 96C124.7 96 96 124.7 96 160v320c0 35.3 28.7 64 64 64h320c35.3 0 64-28.7 64-64V160c0-35.3-28.7-64-64-64H160zm0 32h320c17.7 0 32 14.3 32 32v320c0 17.7-14.3 32-32 32H160c-17.7 0-32-14.3-32-32V160c0-17.7 14.3-32 32-32z"/>

    <!-- 세로 그리드 선들 (3줄) -->
    <rect x="240" y="128" width="8" height="384"/>
    <rect x="316" y="128" width="8" height="384"/>
    <rect x="392" y="128" width="8" height="384"/>

    <!-- 가로 그리드 선들 (3줄) -->
    <rect x="128" y="240" width="384" height="8"/>
    <rect x="128" y="316" width="384" height="8"/>
    <rect x="128" y="392" width="384" height="8"/>
</svg>
