{
  "accessors": [
    {
      "bufferView": 2,
      "componentType": 5126,
      "count": 2972,
      "max": [
        0.39154800772666931,
        0.35285800695419312,
        1.1007499694824219
      ],
      "min": [
        -0.39186999201774597,
        -0.3030250072479248,
        0.31723099946975708
      ],
      "type": "VEC3"
    },
    {
      "bufferView": 2,
      "byteOffset": 35664,
      "componentType": 5126,
      "count": 2972,
      "max": [
        0.99993729591369629,
        0.99942445755004883,
        0.99999856948852539
      ],
      "min": [
        -0.9999392032623291,
        -0.98166912794113159,
        -0.99999856948852539
      ],
      "type": "VEC3"
    },
    {
      "bufferView": 3,
      "componentType": 5126,
      "count": 2972,
      "max": [
        0.99900287389755249,
        0.99999988079071045,
        0.99724292755126953,
        1
      ],
      "min": [
        -0.99608016014099121,
        -0.98629474639892578,
        -0.99783426523208618,
        1
      ],
      "type": "VEC4"
    },
    {
      "bufferView": 1,
      "componentType": 5126,
      "count": 2972,
      "max": [
        0.92430001497268677,
        0.99949997663497925
      ],
      "min": [
        0.075699999928474426,
        0.0017999999690800905
      ],
      "type": "VEC2"
    },
    {
      "bufferView": 0,
      "componentType": 5125,
      "count": 16920,
      "max": [
        2971
      ],
      "min": [
        0
      ],
      "type": "SCALAR"
    },
    {
      "bufferView": 2,
      "byteOffset": 71328,
      "componentType": 5126,
      "count": 2276,
      "max": [
        0.37087300419807434,
        0.36987000703811646,
        1.0810739994049072
      ],
      "min": [
        -0.37079000473022461,
        -0.377267986536026,
        0.33652201294898987
      ],
      "type": "VEC3"
    },
    {
      "bufferView": 2,
      "byteOffset": 98640,
      "componentType": 5126,
      "count": 2276,
      "max": [
        0.9999997615814209,
        1,
        0.99999392032623291
      ],
      "min": [
        -0.9999997615814209,
        -1,
        -0.99999392032623291
      ],
      "type": "VEC3"
    },
    {
      "bufferView": 3,
      "byteOffset": 47552,
      "componentType": 5126,
      "count": 2276,
      "max": [
        1,
        0.99984419345855713,
        0.99723559617996216,
        1
      ],
      "min": [
        -1,
        -0.99682885408401489,
        -0.99945574998855591,
        1
      ],
      "type": "VEC4"
    },
    {
      "bufferView": 1,
      "byteOffset": 23776,
      "componentType": 5126,
      "count": 2276,
      "max": [
        0.90170001983642578,
        0.99800002574920654
      ],
      "min": [
        0.0017999999690800905,
        0.0020000000949949026
      ],
      "type": "VEC2"
    },
    {
      "bufferView": 0,
      "byteOffset": 67680,
      "componentType": 5125,
      "count": 12720,
      "max": [
        2275
      ],
      "min": [
        0
      ],
      "type": "SCALAR"
    },
    {
      "bufferView": 2,
      "byteOffset": 125952,
      "componentType": 5126,
      "count": 5687,
      "max": [
        0.46974098682403564,
        0.46919500827789307,
        0.18618999421596527
      ],
      "min": [
        -0.46974098682403564,
        -0.47559699416160583,
        -0
      ],
      "type": "VEC3"
    },
    {
      "bufferView": 2,
      "byteOffset": 194196,
      "componentType": 5126,
      "count": 5687,
      "max": [
        1,
        1,
        1
      ],
      "min": [
        -1,
        -1,
        -1
      ],
      "type": "VEC3"
    },
    {
      "bufferView": 3,
      "byteOffset": 83968,
      "componentType": 5126,
      "count": 5687,
      "max": [
        1,
        1,
        1,
        1
      ],
      "min": [
        -1,
        -1,
        -1,
        -1
      ],
      "type": "VEC4"
    },
    {
      "bufferView": 1,
      "byteOffset": 41984,
      "componentType": 5126,
      "count": 5687,
      "max": [
        0.99510002136230469,
        0.99800002574920654
      ],
      "min": [
        0.0049000000581145287,
        0.0020000000949949026
      ],
      "type": "VEC2"
    },
    {
      "bufferView": 0,
      "byteOffset": 118560,
      "componentType": 5125,
      "count": 27870,
      "max": [
        5686
      ],
      "min": [
        0
      ],
      "type": "SCALAR"
    },
    {
      "bufferView": 2,
      "byteOffset": 262440,
      "componentType": 5126,
      "count": 17328,
      "max": [
        0.50528401136398315,
        0.54410499334335327,
        0.16918900609016418
      ],
      "min": [
        -0.52274799346923828,
        -0.31145399808883667,
        -0.0013640000252053142
      ],
      "type": "VEC3"
    },
    {
      "bufferView": 2,
      "byteOffset": 470376,
      "componentType": 5126,
      "count": 17328,
      "max": [
        1,
        1,
        1
      ],
      "min": [
        -1,
        -0.99997782707214355,
        -1
      ],
      "type": "VEC3"
    },
    {
      "bufferView": 3,
      "byteOffset": 174960,
      "componentType": 5126,
      "count": 17328,
      "max": [
        0.99992924928665161,
        1,
        0.9999997615814209,
        1
      ],
      "min": [
        -0.99999487400054932,
        -1,
        -0.9999992847442627,
        -1
      ],
      "type": "VEC4"
    },
    {
      "bufferView": 1,
      "byteOffset": 87480,
      "componentType": 5126,
      "count": 17328,
      "max": [
        0.95270001888275146,
        0.99559998512268066
      ],
      "min": [
        0.17399999499320984,
        0.032200001180171967
      ],
      "type": "VEC2"
    },
    {
      "bufferView": 0,
      "byteOffset": 230040,
      "componentType": 5125,
      "count": 89601,
      "max": [
        17327
      ],
      "min": [
        0
      ],
      "type": "SCALAR"
    },
    {
      "bufferView": 2,
      "byteOffset": 678312,
      "componentType": 5126,
      "count": 1161,
      "max": [
        0.24304600059986115,
        -0.28972700238227844,
        0.95199102163314819
      ],
      "min": [
        -0.24296300113201141,
        -0.37887200713157654,
        0.46598199009895325
      ],
      "type": "VEC3"
    },
    {
      "bufferView": 2,
      "byteOffset": 692244,
      "componentType": 5126,
      "count": 1161,
      "max": [
        0.99428081512451172,
        0.93079578876495361,
        0.99429136514663696
      ],
      "min": [
        -0.99429136514663696,
        -1,
        -0.99429136514663696
      ],
      "type": "VEC3"
    },
    {
      "bufferView": 3,
      "byteOffset": 452208,
      "componentType": 5126,
      "count": 1161,
      "max": [
        0.9999997615814209,
        0.99228173494338989,
        0.99999958276748657,
        1
      ],
      "min": [
        -0.93105453252792358,
        -0.99390143156051636,
        -0.78183847665786743,
        1
      ],
      "type": "VEC4"
    },
    {
      "bufferView": 1,
      "byteOffset": 226104,
      "componentType": 5126,
      "count": 1161,
      "max": [
        0.99699997901916504,
        0.99709999561309814
      ],
      "min": [
        0.5252000093460083,
        0.0034000000450760126
      ],
      "type": "VEC2"
    },
    {
      "bufferView": 0,
      "byteOffset": 588444,
      "componentType": 5125,
      "count": 6360,
      "max": [
        1160
      ],
      "min": [
        0
      ],
      "type": "SCALAR"
    },
    {
      "bufferView": 2,
      "byteOffset": 706176,
      "componentType": 5126,
      "count": 1006,
      "max": [
        0.42387300729751587,
        0.41831600666046143,
        0.16049399971961975
      ],
      "min": [
        -0.42387300729751587,
        -0.2018129974603653,
        0.11734700202941895
      ],
      "type": "VEC3"
    },
    {
      "bufferView": 2,
      "byteOffset": 718248,
      "componentType": 5126,
      "count": 1006,
      "max": [
        0.99999856948852539,
        0.97429001331329346,
        0.98151701688766479
      ],
      "min": [
        -0.99999856948852539,
        -0.98572772741317749,
        -0.98151701688766479
      ],
      "type": "VEC3"
    },
    {
      "bufferView": 3,
      "byteOffset": 470784,
      "componentType": 5126,
      "count": 1006,
      "max": [
        0.94917356967926025,
        0.99999701976776123,
        0.99998378753662109,
        1
      ],
      "min": [
        -0.99762499332427979,
        -0.99999713897705078,
        -0.99998420476913452,
        -1
      ],
      "type": "VEC4"
    },
    {
      "bufferView": 1,
      "byteOffset": 235392,
      "componentType": 5126,
      "count": 1006,
      "max": [
        0.98739999532699585,
        0.99559998512268066
      ],
      "min": [
        0.012600000016391277,
        0.0043999999761581421
      ],
      "type": "VEC2"
    },
    {
      "bufferView": 0,
      "byteOffset": 613884,
      "componentType": 5125,
      "count": 4488,
      "max": [
        1005
      ],
      "min": [
        0
      ],
      "type": "SCALAR"
    }
  ],
  "asset": {
    "extras": {
      "author": "jimmyn64 (https://sketchfab.com/jimmyn64)",
      "license": "CC-BY-4.0 (http://creativecommons.org/licenses/by/4.0/)",
      "source": "https://sketchfab.com/3d-models/gold-paint-test-7db2a32299f246efa81a26912ec7e8a9",
      "title": "Gold Paint Test"
    },
    "generator": "Sketchfab-6.4.0",
    "version": "2.0"
  },
  "bufferViews": [
    {
      "buffer": 0,
      "byteLength": 631836,
      "byteOffset": 0,
      "name": "floatBufferViews",
      "target": 34963
    },
    {
      "buffer": 0,
      "byteLength": 243440,
      "byteOffset": 631836,
      "byteStride": 8,
      "name": "floatBufferViews",
      "target": 34962
    },
    {
      "buffer": 0,
      "byteLength": 730320,
      "byteOffset": 875276,
      "byteStride": 12,
      "name": "floatBufferViews",
      "target": 34962
    },
    {
      "buffer": 0,
      "byteLength": 486880,
      "byteOffset": 1605596,
      "byteStride": 16,
      "name": "floatBufferViews",
      "target": 34962
    }
  ],
  "buffers": [
    {
      "byteLength": 2092476,
      "uri": "scene.bin"
    }
  ],
  "images": [
    {
      "uri": "textures/Apollo_BallExterior_Mat1.001_baseColor.png"
    },
    {
      "uri": "textures/Apollo_BallExterior_Mat1.001_metallicRoughness.png"
    },
    {
      "uri": "textures/Apollo_BallExterior_Mat1.001_normal.png"
    },
    {
      "uri": "textures/Apollo_Base_Mat1.001_baseColor.png"
    },
    {
      "uri": "textures/Apollo_Base_Mat1.001_metallicRoughness.png"
    },
    {
      "uri": "textures/Apollo_Base_Mat1.001_emissive.png"
    },
    {
      "uri": "textures/Apollo_Base_Mat1.001_normal.png"
    },
    {
      "uri": "textures/Apollo_Ring_Mat_baseColor.png"
    },
    {
      "uri": "textures/Apollo_Ring_Mat_metallicRoughness.png"
    },
    {
      "uri": "textures/Apollo_Stickers_Mat.001_baseColor.png"
    },
    {
      "uri": "textures/Apollo_Stickers_Mat.001_metallicRoughness.png"
    },
    {
      "uri": "textures/Apollo_Stickers_Mat.001_emissive.png"
    },
    {
      "uri": "textures/Apollo_Stickers_Mat.001_normal.png"
    }
  ],
  "materials": [
    {
      "doubleSided": true,
      "name": "Apollo_BallExterior_Mat1.001",
      "normalTexture": {
        "index": 2,
        "scale": 1,
        "texCoord": 0
      },
      "pbrMetallicRoughness": {
        "baseColorFactor": [
          1,
          1,
          1,
          1
        ],
        "baseColorTexture": {
          "index": 0,
          "texCoord": 0
        },
        "metallicFactor": 1,
        "metallicRoughnessTexture": {
          "index": 1,
          "texCoord": 0
        },
        "roughnessFactor": 1
      }
    },
    {
      "doubleSided": true,
      "name": "Apollo_Ball_Mat1.001",
      "normalTexture": {
        "index": 2,
        "scale": 1,
        "texCoord": 0
      },
      "pbrMetallicRoughness": {
        "baseColorFactor": [
          1,
          1,
          1,
          1
        ],
        "baseColorTexture": {
          "index": 0,
          "texCoord": 0
        },
        "metallicFactor": 1,
        "metallicRoughnessTexture": {
          "index": 1,
          "texCoord": 0
        },
        "roughnessFactor": 1
      }
    },
    {
      "doubleSided": true,
      "emissiveFactor": [
        0.38300304880000002,
        0.38300304880000002,
        0.38300304880000002
      ],
      "emissiveTexture": {
        "index": 5,
        "texCoord": 0
      },
      "name": "Apollo_Base_Mat1.001",
      "normalTexture": {
        "index": 6,
        "scale": 1,
        "texCoord": 0
      },
      "pbrMetallicRoughness": {
        "baseColorFactor": [
          1,
          1,
          1,
          1
        ],
        "baseColorTexture": {
          "index": 3,
          "texCoord": 0
        },
        "metallicFactor": 1,
        "metallicRoughnessTexture": {
          "index": 4,
          "texCoord": 0
        },
        "roughnessFactor": 1
      }
    },
    {
      "alphaMode": "BLEND",
      "doubleSided": true,
      "name": "Apollo_Ring_Mat",
      "pbrMetallicRoughness": {
        "baseColorFactor": [
          1,
          1,
          1,
          0.73951981710000003
        ],
        "baseColorTexture": {
          "index": 7,
          "texCoord": 0
        },
        "metallicFactor": 1,
        "metallicRoughnessTexture": {
          "index": 8,
          "texCoord": 0
        },
        "roughnessFactor": 1
      }
    },
    {
      "doubleSided": true,
      "emissiveFactor": [
        1,
        1,
        1
      ],
      "emissiveTexture": {
        "index": 11,
        "texCoord": 0
      },
      "name": "Apollo_Stickers_Mat.001",
      "normalTexture": {
        "index": 12,
        "scale": 1,
        "texCoord": 0
      },
      "pbrMetallicRoughness": {
        "baseColorFactor": [
          1,
          1,
          1,
          1
        ],
        "baseColorTexture": {
          "index": 9,
          "texCoord": 0
        },
        "metallicFactor": 1,
        "metallicRoughnessTexture": {
          "index": 10,
          "texCoord": 0
        },
        "roughnessFactor": 1
      }
    }
  ],
  "meshes": [
    {
      "primitives": [
        {
          "attributes": {
            "NORMAL": 1,
            "POSITION": 0,
            "TANGENT": 2,
            "TEXCOORD_0": 3
          },
          "indices": 4,
          "material": 0,
          "mode": 4
        }
      ]
    },
    {
      "primitives": [
        {
          "attributes": {
            "NORMAL": 6,
            "POSITION": 5,
            "TANGENT": 7,
            "TEXCOORD_0": 8
          },
          "indices": 9,
          "material": 1,
          "mode": 4
        }
      ]
    },
    {
      "primitives": [
        {
          "attributes": {
            "NORMAL": 11,
            "POSITION": 10,
            "TANGENT": 12,
            "TEXCOORD_0": 13
          },
          "indices": 14,
          "material": 2,
          "mode": 4
        }
      ]
    },
    {
      "primitives": [
        {
          "attributes": {
            "NORMAL": 16,
            "POSITION": 15,
            "TANGENT": 17,
            "TEXCOORD_0": 18
          },
          "indices": 19,
          "material": 2,
          "mode": 4
        }
      ]
    },
    {
      "primitives": [
        {
          "attributes": {
            "NORMAL": 21,
            "POSITION": 20,
            "TANGENT": 22,
            "TEXCOORD_0": 23
          },
          "indices": 24,
          "material": 3,
          "mode": 4
        }
      ]
    },
    {
      "primitives": [
        {
          "attributes": {
            "NORMAL": 26,
            "POSITION": 25,
            "TANGENT": 27,
            "TEXCOORD_0": 28
          },
          "indices": 29,
          "material": 4,
          "mode": 4
        }
      ]
    }
  ],
  "nodes": [
    {
      "children": [
        1
      ],
      "name": "RootNode (gltf orientation matrix)",
      "rotation": [
        -0.70710678118654746,
        -0,
        -0,
        0.70710678118654757
      ]
    },
    {
      "children": [
        2
      ],
      "name": "RootNode (model correction matrix)"
    },
    {
      "children": [
        3,
        4,
        5,
        6,
        7,
        8
      ],
      "name": "AppolloMaterialobj.obj.cleaner.materialmerger.gles"
    },
    {
      "mesh": 0,
      "name": ""
    },
    {
      "mesh": 1,
      "name": ""
    },
    {
      "mesh": 2,
      "name": ""
    },
    {
      "mesh": 3,
      "name": ""
    },
    {
      "mesh": 4,
      "name": ""
    },
    {
      "mesh": 5,
      "name": ""
    }
  ],
  "samplers": [
    {
      "magFilter": 9729,
      "minFilter": 9987,
      "wrapS": 10497,
      "wrapT": 10497
    }
  ],
  "scene": 0,
  "scenes": [
    {
      "name": "OSG_Scene",
      "nodes": [
        0
      ]
    }
  ],
  "textures": [
    {
      "sampler": 0,
      "source": 0
    },
    {
      "sampler": 0,
      "source": 1
    },
    {
      "sampler": 0,
      "source": 2
    },
    {
      "sampler": 0,
      "source": 3
    },
    {
      "sampler": 0,
      "source": 4
    },
    {
      "sampler": 0,
      "source": 5
    },
    {
      "sampler": 0,
      "source": 6
    },
    {
      "sampler": 0,
      "source": 7
    },
    {
      "sampler": 0,
      "source": 8
    },
    {
      "sampler": 0,
      "source": 9
    },
    {
      "sampler": 0,
      "source": 10
    },
    {
      "sampler": 0,
      "source": 11
    },
    {
      "sampler": 0,
      "source": 12
    }
  ]
}

